<svg xmlns="http://www.w3.org/2000/svg" class="si" viewBox="0 0 1536 1280"><g stroke="none" fill="#808080" stroke-width="1px"><title id="bzsi-awesome-bars-title" stroke="none" fill="#808080" stroke-width="1px">icon bars</title><path d="M1536 1088v128q0 26-19 45t-45 19H64q-26 0-45-19t-19-45v-128q0-26 19-45t45-19h1408q26 0 45 19t19 45zm0-512v128q0 26-19 45t-45 19H64q-26 0-45-19T0 704V576q0-26 19-45t45-19h1408q26 0 45 19t19 45zm0-512v128q0 26-19 45t-45 19H64q-26 0-45-19T0 192V64q0-26 19-45T64 0h1408q26 0 45 19t19 45z" stroke="none" fill="#808080" stroke-width="1px"></path></g></svg>